<svg viewBox="0 0 37 36" fill="none" xmlns="http://www.w3.org/2000/svg">
<path d="M7.13008 9.76882H29.7121C30.3649 9.76882 30.8427 10.3841 30.681 11.0165L28.7801 18.4506C28.4405 19.7785 27.2442 20.7074 25.8736 20.7074H9.02537M0 3.49957H4.65214C5.63535 3.49957 6.47274 4.21422 6.62728 5.18521L9.6467 24.1562C9.80125 25.1272 10.6386 25.8418 11.6218 25.8418H28.203" stroke="black" stroke-width="1.5"/>
<path d="M15.7689 32.2656C15.7689 33.5678 14.7584 34.5758 13.5695 34.5758C12.3807 34.5758 11.3701 33.5678 11.3701 32.2656C11.3701 30.9634 12.3807 29.9554 13.5695 29.9554C14.7584 29.9554 15.7689 30.9634 15.7689 32.2656Z" stroke="black" stroke-width="1.5"/>
<path d="M28.746 32.2656C28.746 33.5678 27.7354 34.5758 26.5466 34.5758C25.3577 34.5758 24.3472 33.5678 24.3472 32.2656C24.3472 30.9634 25.3577 29.9554 26.5466 29.9554C27.7354 29.9554 28.746 30.9634 28.746 32.2656Z" stroke="black" stroke-width="1.5"/>
</svg>
